<svg id="Layer_1" height="512" viewBox="0 0 128 128" width="512" xmlns="http://www.w3.org/2000/svg" data-name="Layer 1"><path d="m64 1.731a40.2 40.2 0 0 0 -40.195 40.194c0 38.242 40.195 65.075 40.195 65.075s40.195-26.833 40.195-65.075a40.2 40.2 0 0 0 -40.195-40.194zm0 60.389a20.195 20.195 0 1 1 20.195-20.194 20.218 20.218 0 0 1 -20.195 20.194z" fill="#ff8533"/><path d="m61.5 21.9a20.2 20.2 0 1 0 0 40.046 20.176 20.176 0 0 1 0-40.046z" fill="#ff6700"/><path d="m64 1.731c-.841 0-1.674.034-2.5.085a40.191 40.191 0 0 1 37.691 40.109c0 32.436-28.913 56.661-37.693 63.27 1.571 1.183 2.5 1.8 2.5 1.8s40.195-26.833 40.195-65.075a40.2 40.2 0 0 0 -40.193-40.189z" fill="#ff6700"/><path d="m107.167 89.833h-23.982a113.9 113.9 0 0 1 -19.185 17.167 113.9 113.9 0 0 1 -19.185-17.167h-23.982l-10.006 36.4h106.346z" fill="#f9e14e"/><path d="m102.163 94.837 8.631 31.394h6.38l-10.006-36.4h-23.983c-1.614 1.8-3.215 3.462-4.772 5z" fill="#ffc543"/><path d="m39.811 94.837a113.9 113.9 0 0 0 19.189 17.163 112.417 112.417 0 0 0 17.267-15.083 105.217 105.217 0 0 1 -12.267 10.083 113.9 113.9 0 0 1 -19.185-17.167h-23.982l-1.376 5z" fill="#ffc543"/><g fill="#001522"><path d="m42.055 41.926a21.945 21.945 0 1 0 21.945-21.946 21.969 21.969 0 0 0 -21.945 21.946zm40.39 0a18.445 18.445 0 1 1 -18.445-18.446 18.466 18.466 0 0 1 18.445 18.446z"/><path d="m118.86 125.767-10.006-36.4a1.75 1.75 0 0 0 -1.687-1.286h-20.053c9.666-11.562 18.831-27.454 18.831-46.157a42.26 42.26 0 0 0 -.966-8.991 1.75 1.75 0 0 0 -3.42.746 38.72 38.72 0 0 1 .886 8.245c0 33.557-32.374 58.545-38.445 62.934-6.071-4.389-38.445-29.377-38.445-62.934a38.447 38.447 0 0 1 69.745-22.324 1.75 1.75 0 1 0 2.848-2.035 41.948 41.948 0 0 0 -76.1 24.36c0 18.7 9.165 34.6 18.831 46.157h-20.046a1.75 1.75 0 0 0 -1.687 1.286l-10.006 36.399a1.751 1.751 0 0 0 1.688 2.214h15.172a1.75 1.75 0 0 0 0-3.5h-12.877l9.044-32.9h21.774a113.9 113.9 0 0 0 19.088 16.872 1.748 1.748 0 0 0 1.943 0 113.9 113.9 0 0 0 19.087-16.87h21.773l9.044 32.9h-67.014a1.75 1.75 0 0 0 0 3.5h69.311a1.751 1.751 0 0 0 1.688-2.214z"/><path d="m38.8 124.48h-3.74a1.75 1.75 0 0 0 0 3.5h3.74a1.75 1.75 0 0 0 0-3.5z"/></g></svg>